<svg width="50" height="50" viewBox="0 0 50 50" fill="none" xmlns="http://www.w3.org/2000/svg">
<path d="M21.0526 46.0526C21.0526 47.0995 21.4685 48.1036 22.2088 48.8438C22.9491 49.5841 23.9531 50 25 50C26.0469 50 27.0509 49.5841 27.7912 48.8438C28.5315 48.1036 28.9474 47.0995 28.9474 46.0526V28.9474H46.0526C47.0995 28.9474 48.1036 28.5315 48.8438 27.7912C49.5841 27.0509 50 26.0469 50 25C50 23.9531 49.5841 22.9491 48.8438 22.2088C48.1036 21.4685 47.0995 21.0526 46.0526 21.0526H28.9474V3.94737C28.9474 2.90046 28.5315 1.89643 27.7912 1.15616C27.0509 0.415882 26.0469 0 25 0C23.9531 0 22.9491 0.415882 22.2088 1.15616C21.4685 1.89643 21.0526 2.90046 21.0526 3.94737V21.0526H3.94737C2.90046 21.0526 1.89643 21.4685 1.15616 22.2088C0.415882 22.9491 0 23.9531 0 25C0 26.0469 0.415882 27.0509 1.15616 27.7912C1.89643 28.5315 2.90046 28.9474 3.94737 28.9474H21.0526V46.0526Z" fill="#F4F0F2"/>
</svg>
