<svg width="40" height="40" viewBox="0 0 40 40" fill="none" xmlns="http://www.w3.org/2000/svg">
<path d="M2.86267 21.01V6.69593H9.24144L9.56353 6.65993C15.4855 5.34793 19.4096 4.40193 21.3653 3.81593C23.9631 3.03793 24.9315 2.84792 26.6936 2.73592C28.0114 2.64992 29.5082 3.13192 30.1903 3.79193C30.5671 4.15593 30.8492 4.90393 30.9608 6.06393C30.9837 6.30724 31.0752 6.5402 31.2256 6.73834C31.376 6.93648 31.5798 7.09247 31.8155 7.18993C32.3397 7.40593 32.7755 7.75793 33.1397 8.26993C33.4765 8.73793 33.6955 9.60994 33.7355 10.8719C33.7421 11.104 33.8112 11.3306 33.9361 11.5302C34.061 11.7297 34.2377 11.8956 34.4491 12.0119C35.6744 12.6859 36.2807 13.4459 36.407 14.3379C36.5459 15.3239 36.2091 16.4339 35.327 17.6979C35.1201 17.9944 35.043 18.3558 35.1122 18.7054C35.1814 19.055 35.3914 19.3652 35.6975 19.5699C36.5417 20.134 37.0049 20.918 37.1206 22.03C37.3059 23.802 36.1165 25.112 33.4239 25.374C31.0258 25.6002 28.6044 25.4084 26.2788 24.808C26.015 24.7425 25.737 24.7499 25.4775 24.8294C25.218 24.9089 24.9878 25.0572 24.8139 25.2568C24.6401 25.4564 24.5299 25.699 24.4963 25.9561C24.4627 26.2132 24.507 26.474 24.6242 26.708C25.6768 28.824 26.262 30.57 26.3988 31.922C26.5778 33.716 26.142 35.016 25.1231 36.088C24.3505 36.9 23.1147 37.364 22.6516 37.268C22.0411 37.144 21.6432 36.808 21.1253 35.632C20.8201 34.936 20.6727 34.344 20.4201 32.962C20.178 31.65 20.0453 31.058 19.7696 30.282C18.938 27.93 16.8981 25.492 14.1592 23.81C12.2381 22.6352 10.1581 21.7135 7.97621 21.07C7.83966 21.0307 7.69783 21.0105 7.55517 21.01H2.86267ZM2.77425 3.96993C2.09427 3.95193 1.48376 4.09593 0.972198 4.43593C0.319585 4.86993 0.0122248 5.55393 0.00590923 6.34193L0.0122248 20.988C-0.0593521 21.768 0.182746 22.484 0.755362 23.016C1.29219 23.516 1.99322 23.752 2.73425 23.736H7.33412C9.19487 24.2991 10.9689 25.094 12.6098 26.1C14.816 27.456 16.4412 29.4 17.0623 31.152C17.2749 31.756 17.3886 32.256 17.6033 33.432C17.8938 35.01 18.0749 35.744 18.4917 36.688C19.3548 38.652 20.4874 39.612 22.0495 39.934C23.5863 40.25 25.8241 39.408 27.2388 37.92C28.8072 36.272 29.4998 34.21 29.243 31.662C29.1321 30.5686 28.8135 29.3393 28.2872 27.974C30.0846 28.223 31.9074 28.2606 33.7144 28.086C37.9396 27.676 40.3121 25.062 39.9669 21.758C39.8153 20.334 39.2722 19.1239 38.348 18.1739C39.1248 16.7519 39.4343 15.3459 39.2406 13.9739C39.0174 12.3939 38.0911 11.0779 36.5501 10.0559C36.4301 8.66993 36.0954 7.56393 35.5017 6.73593C35.0325 6.06811 34.4225 5.50013 33.7102 5.06793C33.4829 3.69993 33.005 2.62992 32.2239 1.87792C30.9292 0.625919 28.6156 -0.120081 26.502 0.0159188C24.4957 0.143919 23.3084 0.37592 20.5085 1.21592C18.6622 1.76992 14.8392 2.68992 9.07723 3.96993H2.77425ZM6.3552 21.632C6.35465 21.8109 6.39127 21.9882 6.46296 22.1536C6.53465 22.3191 6.64001 22.4695 6.773 22.5962C6.90598 22.7229 7.06398 22.8235 7.23794 22.8921C7.4119 22.9606 7.59839 22.996 7.78674 22.996C7.97473 22.9954 8.16078 22.9597 8.33425 22.8909C8.50772 22.8221 8.66522 22.7215 8.79776 22.5948C8.9303 22.4681 9.03528 22.3179 9.10671 22.1527C9.17814 21.9875 9.21462 21.8106 9.21407 21.632V6.27593C9.21435 6.09733 9.17759 5.92043 9.10591 5.75533C9.03422 5.59022 8.929 5.44015 8.79627 5.31367C8.66353 5.1872 8.50588 5.0868 8.3323 5.01821C8.15873 4.94963 7.97263 4.91419 7.78464 4.91393C7.59664 4.91419 7.41055 4.94963 7.23697 5.01821C7.06339 5.0868 6.90574 5.1872 6.773 5.31367C6.64027 5.44015 6.53505 5.59022 6.46337 5.75533C6.39168 5.92043 6.35493 6.09733 6.3552 6.27593V21.632Z" fill="white"/>
</svg>
