<svg width="41" height="45" viewBox="0 0 41 45" fill="none" xmlns="http://www.w3.org/2000/svg">
<path d="M38.6939 30.2972L40.1979 21.6318C40.2862 21.1239 40.2619 20.603 40.1268 20.1054C39.9917 19.6078 39.7491 19.1456 39.4158 18.7511C39.0826 18.3567 38.6668 18.0394 38.1975 17.8217C37.7283 17.6039 37.2169 17.4908 36.6991 17.4903H25.646C25.3881 17.4903 25.1332 17.4345 24.8991 17.3266C24.665 17.2187 24.4573 17.0614 24.2904 16.8655C24.1236 16.6697 24.0015 16.4401 23.9328 16.1926C23.864 15.945 23.8503 15.6856 23.8924 15.4322L25.3068 6.84121C25.5353 5.44627 25.4699 4.01927 25.1148 2.65083C24.9615 2.08589 24.6677 1.56852 24.2605 1.14646C23.8534 0.724407 23.346 0.411281 22.7851 0.235994L22.4758 0.136172C21.7763 -0.0866197 21.0177 -0.0349568 20.3552 0.280595C19.6298 0.628909 19.1008 1.26394 18.9045 2.01792L17.889 5.91308C17.5662 7.1528 17.0964 8.34987 16.4895 9.47905C15.6041 11.1293 14.2345 12.4525 12.8094 13.6737L9.73943 16.3073C9.31354 16.6737 8.98091 17.1353 8.7688 17.6543C8.55668 18.1734 8.47112 18.7351 8.51913 19.2934L10.2514 39.2429C10.3278 40.1251 10.7337 40.9468 11.3889 41.5457C12.0442 42.1446 12.9012 42.4771 13.7907 42.4775H23.7068C31.1352 42.4775 37.4736 37.325 38.6939 30.2972Z" fill="white"/>
<path fill-rule="evenodd" clip-rule="evenodd" d="M1.78187 15.8973C2.19417 15.8793 2.59749 16.0207 2.90758 16.2918C3.21767 16.5629 3.41054 16.9428 3.44591 17.3521L5.51531 41.2158C5.55036 41.5712 5.51228 41.9299 5.40339 42.2702C5.2945 42.6104 5.11709 42.9249 4.88199 43.1946C4.64689 43.4643 4.35904 43.6834 4.03602 43.8386C3.713 43.9939 3.36158 44.0819 3.00324 44.0973C2.6449 44.1128 2.28715 44.0554 1.95184 43.9286C1.61654 43.8018 1.31072 43.6083 1.05305 43.3599C0.795393 43.1115 0.591302 42.8134 0.453244 42.4838C0.315186 42.1543 0.246061 41.8001 0.25009 41.4431V17.488C0.250265 17.0774 0.409682 16.6828 0.695082 16.3864C0.980482 16.09 1.36982 15.9148 1.78187 15.8973Z" fill="white"/>
</svg>
