<svg width="41" height="45" viewBox="0 0 41 45" fill="none" xmlns="http://www.w3.org/2000/svg">
<path d="M1.7885 18.6789L3.32084 18.5476C3.28552 18.1535 3.09978 17.7883 2.80218 17.5276C2.50459 17.2669 2.11802 17.1309 1.72277 17.1478C1.32752 17.1647 0.95397 17.3332 0.679708 17.6183C0.405447 17.9035 0.251556 18.2833 0.25 18.6789H1.7885ZM37.1452 22.4184L35.697 30.7879L38.7309 31.313L40.1771 22.9436L37.1452 22.4184ZM22.8044 41.2763H13.2677V44.3533H22.8044V41.2763ZM11.399 39.5593L9.73329 20.2912L6.66655 20.5558L8.33428 39.824L11.399 39.5593ZM35.697 30.7879C34.6569 36.7982 29.2373 41.2763 22.8044 41.2763V44.3533C30.6527 44.3533 37.4221 38.8783 38.7309 31.313L35.697 30.7879ZM22.8249 8.14735L21.4648 16.445L24.5008 16.9414L25.8608 8.64582L22.8249 8.14735ZM10.3795 18.7035L13.3313 16.1598L11.321 13.8295L8.37326 16.3732L10.3795 18.7035ZM18.6996 7.88478L19.6761 4.12264L16.6975 3.35134L15.7211 7.11143L18.6996 7.88478ZM21.1489 3.38416L21.4464 3.48057L22.3879 0.551278L22.0905 0.454866L21.1489 3.38416ZM17.2206 11.6674C17.861 10.4693 18.3575 9.19956 18.6996 7.88478L15.7211 7.11143C15.4385 8.19102 15.0309 9.23398 14.5067 10.2192L17.2206 11.6674ZM21.4464 3.48057C21.7386 3.57013 22.0037 3.73163 22.2173 3.95025C22.4309 4.16888 22.5862 4.43764 22.669 4.73188L25.6475 3.96059C25.4364 3.16323 25.0267 2.43236 24.4568 1.83618C23.8868 1.23999 23.175 0.797942 22.3879 0.551278L21.4464 3.48057ZM19.6761 4.12264C19.7176 3.97518 19.7904 3.83839 19.8895 3.72158C19.9886 3.60477 20.1117 3.51067 20.2504 3.4457L18.915 0.674358C17.8237 1.1995 17.0032 2.17183 16.6975 3.35134L19.6761 4.12264ZM20.2504 3.4457C20.5314 3.31242 20.8524 3.29043 21.1489 3.38416L22.0905 0.454866C21.0428 0.119947 19.9067 0.198478 18.915 0.674358L20.2504 3.4457ZM24.669 20.2174H35.2949V17.1404H24.669V20.2174ZM5.31473 41.5963L3.32084 18.5476L0.256154 18.8122L2.24594 41.8609L5.31473 41.5963ZM3.32699 41.8158V18.6789H0.25V41.8158H3.32699ZM2.24594 41.8609C2.23968 41.7864 2.25105 41.7113 2.27535 41.6406C2.29964 41.5698 2.33839 41.5049 2.38912 41.4499C2.43986 41.3949 2.50147 41.3511 2.57005 41.3212C2.63863 41.2913 2.71268 41.276 2.78749 41.2763V44.3533C4.27676 44.3533 5.44191 43.0774 5.31473 41.5963L2.24594 41.8609ZM25.8608 8.64582C26.1187 7.08637 26.046 5.49014 25.6475 3.96059L22.669 4.73394C22.9599 5.84819 23.013 7.01121 22.8249 8.14735L25.8608 8.64582ZM13.2677 41.2763C12.798 41.2755 12.3456 41.0988 11.9997 40.781C11.6538 40.4632 11.4395 40.0273 11.399 39.5593L8.33428 39.824C8.44102 41.0592 9.00688 42.2095 9.92018 43.048C10.8335 43.8865 12.0279 44.3522 13.2677 44.3533V41.2763ZM13.3313 16.1598C14.7262 14.9578 16.2278 13.528 17.2227 11.6674L14.5067 10.2192C13.797 11.5505 12.6667 12.6726 11.321 13.8295L13.3313 16.1598ZM40.1771 22.9436C40.3006 22.2317 40.2669 21.5015 40.0785 20.804C39.8901 20.1066 39.5515 19.4587 39.0864 18.9059C38.6213 18.353 38.041 17.9085 37.386 17.6036C36.7311 17.2986 36.0174 17.1405 35.2949 17.1404V20.2174C36.458 20.2174 37.3462 21.2676 37.1452 22.4184L40.1771 22.9436ZM2.78749 41.2763C3.08699 41.2763 3.32699 41.5184 3.32699 41.8158H0.25C0.25 43.2148 1.38438 44.3533 2.78749 44.3533V41.2763ZM21.4648 16.445C21.3884 16.9098 21.4139 17.3856 21.5397 17.8395C21.6656 18.2935 21.8886 18.7146 22.1935 19.0737C22.4983 19.4328 22.8776 19.7212 23.3051 19.9191C23.7326 20.1169 24.198 20.2174 24.669 20.2174V17.1404C24.644 17.1405 24.6192 17.1371 24.5965 17.1266C24.5738 17.116 24.5537 17.1006 24.5377 17.0814C24.5216 17.0622 24.51 17.0397 24.5036 17.0155C24.4972 16.9913 24.4963 16.966 24.5008 16.9414L21.4648 16.445ZM9.73329 20.2912C9.70827 19.9942 9.75191 19.6954 9.86458 19.4195C9.97726 19.1435 10.1537 18.8981 10.3795 18.7035L8.36916 16.3711C7.77457 16.8842 7.3102 17.5311 7.01422 18.2586C6.71824 18.986 6.59909 19.7734 6.66655 20.5558L9.73329 20.2912Z" fill="white"/>
</svg>
