<svg width="40" height="40" viewBox="0 0 40 40" fill="none" xmlns="http://www.w3.org/2000/svg">
<path d="M2.86267 18.9901V33.3041H9.24144L9.56353 33.3401C15.4855 34.6521 19.4096 35.5981 21.3653 36.1841C23.9631 36.9621 24.9315 37.1521 26.6936 37.2641C28.0114 37.3501 29.5082 36.8681 30.1903 36.2081C30.5671 35.8441 30.8492 35.0961 30.9608 33.9361C30.9837 33.6928 31.0752 33.4598 31.2256 33.2617C31.376 33.0636 31.5798 32.9076 31.8155 32.8101C32.3397 32.5941 32.7755 32.2421 33.1397 31.7301C33.4765 31.2621 33.6955 30.3901 33.7355 29.1281C33.7421 28.896 33.8112 28.6694 33.9361 28.4698C34.061 28.2703 34.2377 28.1044 34.4491 27.9881C35.6744 27.3141 36.2807 26.5541 36.407 25.6621C36.5459 24.6761 36.2091 23.5661 35.327 22.3021C35.1201 22.0056 35.043 21.6442 35.1122 21.2946C35.1814 20.945 35.3914 20.6349 35.6975 20.4301C36.5417 19.8661 37.0049 19.0821 37.1206 17.9701C37.3059 16.1981 36.1165 14.8881 33.4239 14.6261C31.0258 14.3998 28.6044 14.5917 26.2788 15.1921C26.015 15.2576 25.737 15.2501 25.4775 15.1706C25.218 15.0911 24.9878 14.9428 24.8139 14.7432C24.6401 14.5436 24.5299 14.301 24.4963 14.0439C24.4627 13.7869 24.507 13.526 24.6242 13.2921C25.6768 11.1761 26.262 9.43007 26.3988 8.07806C26.5778 6.28406 26.142 4.98406 25.1231 3.91206C24.3505 3.10006 23.1147 2.63606 22.6516 2.73206C22.0411 2.85606 21.6432 3.19206 21.1253 4.36806C20.8201 5.06406 20.6727 5.65606 20.4201 7.03806C20.178 8.35006 20.0453 8.94207 19.7696 9.71807C18.938 12.0701 16.8981 14.5081 14.1592 16.1901C12.2381 17.3648 10.1581 18.2866 7.97621 18.9301C7.83966 18.9693 7.69783 18.9895 7.55517 18.9901H2.86267ZM2.77425 36.0301C2.09427 36.0481 1.48376 35.9041 0.972198 35.5641C0.319585 35.1301 0.0122248 34.4461 0.00590923 33.6581L0.0122248 19.0121C-0.0593521 18.2321 0.182746 17.5161 0.755362 16.9841C1.29219 16.4841 1.99322 16.2481 2.73425 16.2641H7.33412C9.19487 15.7009 10.9689 14.906 12.6098 13.9001C14.816 12.5441 16.4412 10.6001 17.0623 8.84806C17.2749 8.24406 17.3886 7.74406 17.6033 6.56806C17.8938 4.99006 18.0749 4.25606 18.4917 3.31206C19.3548 1.34805 20.4874 0.388053 22.0495 0.0660521C23.5863 -0.249948 25.8241 0.592053 27.2388 2.08005C28.8072 3.72806 29.4998 5.79006 29.243 8.33806C29.1321 9.4314 28.8135 10.6607 28.2872 12.0261C30.0846 11.777 31.9074 11.7394 33.7144 11.9141C37.9396 12.3241 40.3121 14.9381 39.9669 18.2421C39.8153 19.6661 39.2722 20.8761 38.348 21.8261C39.1248 23.2481 39.4343 24.6541 39.2406 26.0261C39.0174 27.6061 38.0911 28.9221 36.5501 29.9441C36.4301 31.3301 36.0954 32.4361 35.5017 33.2641C35.0325 33.9319 34.4225 34.4999 33.7102 34.9321C33.4829 36.3001 33.005 37.3701 32.2239 38.1221C30.9292 39.3741 28.6156 40.1201 26.502 39.9841C24.4957 39.8561 23.3084 39.6241 20.5085 38.7841C18.6622 38.2301 14.8392 37.3101 9.07723 36.0301H2.77425ZM6.3552 18.3681C6.35465 18.1891 6.39127 18.0119 6.46296 17.8464C6.53465 17.6809 6.64001 17.5305 6.773 17.4038C6.90598 17.2771 7.06398 17.1766 7.23794 17.108C7.4119 17.0394 7.59839 17.0041 7.78674 17.0041C7.97473 17.0046 8.16078 17.0403 8.33425 17.1091C8.50772 17.178 8.66522 17.2786 8.79776 17.4052C8.9303 17.5319 9.03528 17.6821 9.10671 17.8473C9.17814 18.0125 9.21462 18.1895 9.21407 18.3681V33.7241C9.21435 33.9027 9.17759 34.0796 9.10591 34.2447C9.03422 34.4098 8.929 34.5599 8.79627 34.6864C8.66353 34.8128 8.50588 34.9132 8.3323 34.9818C8.15873 35.0504 7.97263 35.0858 7.78464 35.0861C7.59664 35.0858 7.41055 35.0504 7.23697 34.9818C7.06339 34.9132 6.90574 34.8128 6.773 34.6864C6.64027 34.5599 6.53505 34.4098 6.46337 34.2447C6.39168 34.0796 6.35493 33.9027 6.3552 33.7241V18.3681Z" fill="white"/>
</svg>
